<svg width="26" height="26" viewBox="0 0 26 26" fill="none" xmlns="http://www.w3.org/2000/svg">
<path d="M7.58333 9.58333V7.41667C7.58333 5.98008 8.15402 4.60233 9.16984 3.58651C10.1857 2.57068 11.5634 2 13 2C14.4366 2 15.8143 2.57068 16.8302 3.58651C17.846 4.60233 18.4167 5.98008 18.4167 7.41667V9.58333H21.6667C21.954 9.58333 22.2295 9.69747 22.4327 9.90064C22.6359 10.1038 22.75 10.3793 22.75 10.6667V23.6667C22.75 23.954 22.6359 24.2295 22.4327 24.4327C22.2295 24.6359 21.954 24.75 21.6667 24.75H4.33333C4.04602 24.75 3.77047 24.6359 3.5673 24.4327C3.36414 24.2295 3.25 23.954 3.25 23.6667V10.6667C3.25 10.3793 3.36414 10.1038 3.5673 9.90064C3.77047 9.69747 4.04602 9.58333 4.33333 9.58333H7.58333ZM7.58333 11.75H5.41667V22.5833H20.5833V11.75H18.4167V13.9167H16.25V11.75H9.75V13.9167H7.58333V11.75ZM9.75 9.58333H16.25V7.41667C16.25 6.55471 15.9076 5.72806 15.2981 5.11857C14.6886 4.50908 13.862 4.16667 13 4.16667C12.138 4.16667 11.3114 4.50908 10.7019 5.11857C10.0924 5.72806 9.75 6.55471 9.75 7.41667V9.58333Z" fill="white"/>
</svg>
