<svg width="686" height="478" viewBox="0 0 686 478" fill="none" xmlns="http://www.w3.org/2000/svg">
<path d="M138.593 250.886C217.209 197.602 298.706 148.362 382.313 103.714C447.068 69.1317 514.547 37.6152 585.758 23.6683C601.233 20.6375 691.69 0.685948 683.552 39.9266C680.562 54.3446 655.107 90.1947 648.903 98.5117C612.529 147.272 570.693 192.923 525.995 234.91C458.066 298.718 381.39 351.988 299.728 396.66C234.133 432.542 160.112 470.101 86.2601 476.202C53.3926 478.917 13.147 473.589 3.52682 439.532C-13.325 379.873 62.6621 301.222 102.799 260.776C215.606 147.1 379.55 61.2788 530.516 17.0929C569.42 5.7061 642.729 -13.4555 671.254 22.1574C705.865 65.3687 610.357 146.989 581.901 171.719C459.764 277.865 296.072 371.745 139.318 403.952C104.225 411.163 22.2404 426.257 8.00638 382.294C-6.69223 336.897 50.7457 277.809 75.7123 241.517" stroke="white" stroke-opacity="0.5" stroke-width="2" stroke-linecap="round" stroke-linejoin="round"/>
</svg>
