<svg width="255" height="255" viewBox="0 0 255 255" fill="none" xmlns="http://www.w3.org/2000/svg">
<path d="M127.5 0L137.002 37.0905L154.009 2.78618L155.592 41.0418L179.359 11.023L172.954 48.7718L202.443 24.3503L188.329 59.9426L222.251 42.1858L201.046 74.0659L237.918 63.75L210.548 90.5246L248.76 88.1003L216.421 108.599L254.302 114.173L218.408 127.5L254.302 140.827L216.421 146.401L248.76 166.9L210.548 164.475L237.918 191.25L201.046 180.934L222.251 212.814L188.329 195.057L202.443 230.65L172.954 206.228L179.359 243.977L155.592 213.958L154.009 252.214L137.002 217.91L127.5 255L117.998 217.91L100.991 252.214L99.408 213.958L75.6411 243.977L82.0462 206.228L52.5574 230.65L66.671 195.057L32.749 212.814L53.9543 180.934L17.0818 191.25L44.4519 164.475L6.2403 166.9L38.579 146.401L0.698456 140.827L36.5925 127.5L0.698456 114.173L38.579 108.599L6.2403 88.1003L44.4519 90.5246L17.0818 63.75L53.9543 74.0659L32.749 42.1858L66.671 59.9426L52.5574 24.3503L82.0462 48.7718L75.6411 11.023L99.408 41.0418L100.991 2.78618L117.998 37.0905L127.5 0Z" fill="#DBDBDB" fill-opacity="0.05"/>
</svg>
